<svg version="1.1" id="Layer_1" xmlns="http://www.w3.org/2000/svg" xmlns:xlink="http://www.w3.org/1999/xlink" x="0px" y="0px"
	 width="100%" viewBox="0 0 600 600" enable-background="new 0 0 600 600" xml:space="preserve">
<path fill="#FFFFFF" opacity="1.000000" stroke="none" 
	d="
M415.000000,601.000000 
	C276.695374,601.000000 138.890732,601.000000 1.043045,601.000000 
	C1.043045,401.070343 1.043045,201.140671 1.043045,1.105505 
	C200.887970,1.105505 400.776031,1.105505 600.832031,1.105505 
	C600.832031,200.999878 600.832031,400.999939 600.832031,601.000000 
	C539.140625,601.000000 477.320312,601.000000 415.000000,601.000000 
M418.359436,493.000031 
	C429.319275,491.331635 440.413208,490.268951 451.213074,487.877930 
	C480.243652,481.450623 505.877838,467.873413 528.059875,448.265991 
	C549.592163,429.232971 566.308899,406.570526 577.173584,379.665741 
	C583.687256,363.535706 588.026611,346.903076 589.789551,329.743469 
	C590.893555,318.997955 590.390930,308.028564 589.878174,297.194244 
	C589.461426,288.387939 588.696472,279.470093 586.803345,270.884552 
	C579.764160,238.961105 565.455200,210.547577 543.589966,186.174637 
	C529.328796,170.277832 512.548218,157.376572 493.700134,147.361450 
	C466.517517,132.917679 437.353180,126.134995 406.623291,126.014450 
	C386.962280,125.937325 367.300293,125.915466 347.639496,126.016029 
	C291.390564,126.303741 235.139359,126.461700 178.895905,127.196167 
	C169.217438,127.322548 159.420441,129.395889 149.946472,131.681717 
	C134.124176,135.499222 119.083511,141.542191 104.820633,149.557327 
	C85.135574,160.619431 68.020805,174.737534 53.579735,192.017654 
	C42.461231,205.321991 33.558140,220.079865 26.533106,235.946793 
	C18.766104,253.489487 13.962179,271.896851 12.179340,290.915955 
	C11.185798,301.514954 11.891801,312.284698 12.025213,322.975098 
	C12.208083,337.628479 15.512665,351.722870 19.887241,365.631622 
	C26.505644,386.674438 36.700512,405.713745 50.396042,423.054932 
	C61.723282,437.397430 74.722794,449.779388 89.632858,460.275757 
	C106.159248,471.909943 124.197487,480.314392 143.545273,485.999908 
	C157.392960,490.069183 171.561035,492.849609 185.952637,492.892212 
	C263.097626,493.120575 340.243652,493.000000 418.359436,493.000031 
z"/>
<path fill="#C74634" opacity="1.000000" stroke="none" 
	d="
M417.874390,493.000000 
	C340.243652,493.000000 263.097626,493.120575 185.952637,492.892212 
	C171.561035,492.849609 157.392960,490.069183 143.545273,485.999908 
	C124.197487,480.314392 106.159248,471.909943 89.632858,460.275757 
	C74.722794,449.779388 61.723282,437.397430 50.396042,423.054932 
	C36.700512,405.713745 26.505644,386.674438 19.887241,365.631622 
	C15.512665,351.722870 12.208083,337.628479 12.025213,322.975098 
	C11.891801,312.284698 11.185798,301.514954 12.179340,290.915955 
	C13.962179,271.896851 18.766104,253.489487 26.533106,235.946793 
	C33.558140,220.079865 42.461231,205.321991 53.579735,192.017654 
	C68.020805,174.737534 85.135574,160.619431 104.820633,149.557327 
	C119.083511,141.542191 134.124176,135.499222 149.946472,131.681717 
	C159.420441,129.395889 169.217438,127.322548 178.895905,127.196167 
	C235.139359,126.461700 291.390564,126.303741 347.639496,126.016029 
	C367.300293,125.915466 386.962280,125.937325 406.623291,126.014450 
	C437.353180,126.134995 466.517517,132.917679 493.700134,147.361450 
	C512.548218,157.376572 529.328796,170.277832 543.589966,186.174637 
	C565.455200,210.547577 579.764160,238.961105 586.803345,270.884552 
	C588.696472,279.470093 589.461426,288.387939 589.878174,297.194244 
	C590.390930,308.028564 590.893555,318.997955 589.789551,329.743469 
	C588.026611,346.903076 583.687256,363.535706 577.173584,379.665741 
	C566.308899,406.570526 549.592163,429.232971 528.059875,448.265991 
	C505.877838,467.873413 480.243652,481.450623 451.213074,487.877930 
	C440.413208,490.268951 429.319275,491.331635 417.874390,493.000000 
M485.999939,392.499908 
	C491.931946,384.903137 498.426392,377.674042 503.681732,369.634918 
	C515.508118,351.544006 520.018738,331.032135 520.780823,309.782013 
	C521.058105,302.051514 519.337646,294.177429 517.951172,286.472778 
	C513.973755,264.369965 503.561981,245.433243 488.466705,229.035614 
	C479.971527,219.807434 470.021606,212.435165 458.982910,206.329910 
	C443.894501,197.984833 427.850220,192.300156 410.761108,192.189850 
	C340.460419,191.736008 270.154938,191.940109 199.851624,192.087189 
	C192.333115,192.102921 184.740707,192.859665 177.314423,194.076965 
	C155.686905,197.622116 136.926498,207.462997 120.715599,221.929840 
	C107.227196,233.967117 97.048820,248.547562 90.222351,265.391907 
	C79.382202,292.139984 78.732735,319.438446 87.478874,346.606232 
	C94.486221,368.372925 107.497360,386.392151 125.376854,401.052460 
	C147.286682,419.017395 172.566483,427.603485 200.354843,427.833435 
	C263.990265,428.359955 327.633240,428.082184 391.272552,427.911285 
	C400.794678,427.885712 410.368927,427.113770 419.823364,425.925629 
	C445.526581,422.695587 467.207825,411.158447 485.999939,392.499908 
z"/>
<path fill="#FFFFFF" opacity="1.000000" stroke="none" 
	d="
M485.749786,392.750061 
	C467.207825,411.158447 445.526581,422.695587 419.823364,425.925629 
	C410.368927,427.113770 400.794678,427.885712 391.272552,427.911285 
	C327.633240,428.082184 263.990265,428.359955 200.354843,427.833435 
	C172.566483,427.603485 147.286682,419.017395 125.376854,401.052460 
	C107.497360,386.392151 94.486221,368.372925 87.478874,346.606232 
	C78.732735,319.438446 79.382202,292.139984 90.222351,265.391907 
	C97.048820,248.547562 107.227196,233.967117 120.715599,221.929840 
	C136.926498,207.462997 155.686905,197.622116 177.314423,194.076965 
	C184.740707,192.859665 192.333115,192.102921 199.851624,192.087189 
	C270.154938,191.940109 340.460419,191.736008 410.761108,192.189850 
	C427.850220,192.300156 443.894501,197.984833 458.982910,206.329910 
	C470.021606,212.435165 479.971527,219.807434 488.466705,229.035614 
	C503.561981,245.433243 513.973755,264.369965 517.951172,286.472778 
	C519.337646,294.177429 521.058105,302.051514 520.780823,309.782013 
	C520.018738,331.032135 515.508118,351.544006 503.681732,369.634918 
	C498.426392,377.674042 491.931946,384.903137 485.749786,392.750061 
z"/>
</svg>